<?xml version="1.0" encoding="utf-8"?>
<!-- Generator: Adobe Illustrator 22.1.0, SVG Export Plug-In . SVG Version: 6.00 Build 0)  -->
<svg version="1.1" id="레이어_1" xmlns="http://www.w3.org/2000/svg" xmlns:xlink="http://www.w3.org/1999/xlink" x="0px"
	 y="0px" viewBox="0 0 194.2 85.5" style="enable-background:new 0 0 194.2 85.5;" xml:space="preserve">
<style type="text/css">
	.st0{fill:#111;}
</style>
<g>
	<g>
		<path class="st0" d="M55.6,13.6c-5.5,0.8-6.1,1.3-7.3,7.5l-5.6,29.7c-1.2,6.2-0.8,6.6,4.9,7.5l-0.2,1.1H28l0.2-1.1
			c5.5-0.8,5.9-1.3,7.1-7.5l2.9-15.4H17.6l-2.9,15.4c-1.2,6.3-0.7,6.5,4.8,7.5l-0.2,1.1H0.1l0.2-1.1c5.3-0.8,5.9-1.2,7.1-7.5
			l5.7-29.7c1.2-6.1,0.7-6.8-4.9-7.5l0.2-1.1h19.4l-0.2,1.1c-5.6,0.9-6,1.4-7.2,7.5L18,33.5h20.7L41,21.2c1.2-6.2,0.7-6.8-4.8-7.5
			l0.2-1.1h19.5L55.6,13.6z"/>
		<path class="st0" d="M53.9,35.6c2.3-3.6,6.2-7.4,8.7-7.4c2.5,0,3.3,3.5,3.9,9.6c0.5,4.6,0.9,12.2,1.1,17.6c2.7-4.1,9.2-14,9.2-19
			c0-2-1.2-3.7-1.4-4.4c-0.3-0.7,0-1.3,0.5-2c0.7-0.8,2.2-1.8,3.2-1.8c1.6,0,2.5,1.4,2.6,3.9c0,1.9-0.7,5.1-2.6,8.2
			C72.3,52.1,63.3,65.2,53.6,77L46,79.1l-0.3-0.9c6.6-4.3,13.3-11.6,16.4-15.9c0.1-3.8-0.8-15.9-1.6-22.7c-0.6-4.5-1-6.2-2.1-6.2
			c-0.6,0-2,0.8-3.8,2.9L53.9,35.6z"/>
		<path class="st0" d="M115,53.1c-3.7,5-7.9,7.2-10.1,7.2c-2,0-2.9-1.7-1.7-7c0.5-2.2,0.8-4,1.4-6.3c-3.4,5.1-7.2,9-10.1,11.1
			c-1.7,1.3-3.7,2.2-5.4,2.2c-2.5,0-4.7-1.5-2.8-10c1-4.5,2.3-9.6,3.3-14c0.5-2.4,0.6-3.1-0.2-3.1s-2.6,1.1-4.3,2.9l-0.6-1
			c3.2-3.9,7.5-6.9,10.2-6.9c2.2,0,2.5,2.4,1.2,8.4c-1.2,5-2.4,9.8-3.4,14.3c-0.8,3.6,0.2,4.6,1.1,4.6c2.4,0,5.5-3.4,8.3-7.4
			c1.6-2.2,3.4-5,4.2-8.5c0.7-2.9,1.3-5.9,2.1-9.4c2.1-0.6,4.2-1.2,6.2-1.9h0.5c-1.7,7.2-4,17.2-5.4,24.6c-0.4,1.9-0.2,2.5,0.4,2.5
			c0.7,0,2.3-0.9,4.3-3.1L115,53.1z"/>
		<path class="st0" d="M150.7,53.3c-3.8,4.8-7.6,7-10,7c-2.2,0-2.9-1.7-1.6-7.1c1.2-5.4,2.3-10.1,3.5-15.3c0.8-3.9,0.8-5.2-0.8-5.2
			c-2.8,0-7.6,5.3-10.4,10.1c-1.6,2.7-2,4.3-2.5,6.4c-0.7,3-1.5,6.9-2.1,9.7c-2.1,0.2-4.5,0.8-6.3,1.3l-0.4-0.4
			c1.5-6.8,3.6-15.4,5.4-23.4c0.5-2.4,0.5-3.1-0.3-3.1c-0.9,0-2.5,1.2-4.2,2.9l-0.6-1c3.3-4.3,7.5-6.9,9.8-6.9
			c2.4,0,2.6,2.4,1.2,8.9l-1,4.2c4.5-7.2,11.2-13.1,15.9-13.1c2.6,0,4.3,1.3,2.2,10.5c-1.1,4.8-2.1,9.2-3.1,13.8
			c-0.5,2.1-0.3,2.8,0.4,2.8c0.7,0,2.2-0.8,4.3-3.1L150.7,53.3z"/>
		<path class="st0" d="M192.7,59.4H174l0.2-1.1c5.2-0.9,5.7-1.5,5.2-5.1c-0.5-3.5-1-7.2-1.6-11.7h-13.5c-1.8,3.4-4,7.4-5.7,11.1
			c-1.9,4-1.3,4.8,4.3,5.7l-0.2,1.1h-15.3l0.2-1.1c4.8-0.8,5.9-1.3,9.6-8l21.6-38.5l1.5-0.2c3,19.8,4.6,29.7,6.1,39.5
			c0.9,5.8,1.4,6.4,6.5,7.3L192.7,59.4z M175.1,22.2h-0.1c-3.2,5.7-6.4,11.6-9.5,17.4h12L175.1,22.2z"/>
	</g>
</g>
</svg>
